{
  "source": "C:\\Users\\Peter\\Desktop\\stuff\\MIUN\\quantitative_research\\video_compression\\videos\\BVI-HD\\CloudsZoom_1920x1080_60fps.mp4",
  "output": "C:\\Users\\Peter\\Desktop\\stuff\\MIUN\\quantitative_research\\video_compression\\compressed_videos\\BVI-HD\\vp9\\12\\CloudsZoom_1920x1080_60fps_vp9.webm",
  "codec": "vp9",
  "ok": "Input #0, mov,mp4,m4a,3gp,3g2,mj2, from 'C:\\Users\\Peter\\Desktop\\stuff\\MIUN\\quantitative_research\\video_compression\\videos\\BVI-HD\\CloudsZoom_1920x1080_60fps.mp4':\n  Metadata:\n    major_brand     : isom\n    minor_version   : 512\n    compatible_brands: isomiso2avc1mp41\n    encoder         : Lavf54.28.101\n  Duration: 00:00:05.00, start: 0.000000, bitrate: 32589 kb/s\n  Stream #0:0[0x1](und): Video: h264 (High 4:4:4 Predictive) (avc1 / 0x31637661), yuv420p(progressive), 1920x1080, 32586 kb/s, 60 fps, 60 tbr, 60 tbn (default)\n    Metadata:\n      handler_name    : VideoHandler\n      vendor_id       : [0][0][0][0]\n[out#0/webm @ 00000250b1259540] Codec AVOption b:a (set bitrate (in bits/s)) has not been used for any stream. The most likely reason is either wrong type (e.g. a video option with no video streams) or that it is a private option of some decoder which was not actually used for any stream.\nStream mapping:\n  Stream #0:0 -> #0:0 (h264 (native) -> vp9 (libvpx-vp9))\nPress [q] to stop, [?] for help\n[libvpx-vp9 @ 00000250b1b3f040] v1.15.2-100-g40561f514\nOutput #0, webm, to 'C:\\Users\\Peter\\Desktop\\stuff\\MIUN\\quantitative_research\\video_compression\\compressed_videos\\BVI-HD\\vp9\\12\\CloudsZoom_1920x1080_60fps_vp9.webm':\n  Metadata:\n    major_brand     : isom\n    minor_version   : 512\n    compatible_brands: isomiso2avc1mp41\n    encoder         : Lavf62.3.100\n  Stream #0:0(und): Video: vp9, yuv420p(tv, progressive), 1920x1080, q=2-31, 12000 kb/s, 60 fps, 1k tbn (default)\n    Metadata:\n      encoder         : Lavc62.11.100 libvpx-vp9\n      handler_name    : VideoHandler\n      vendor_id       : [0][0][0][0]\n    Side data:\n      cpb: bitrate max/min/avg: 0/0/0 buffer size: 12000000 vbv_delay: N/A\nframe=    1 fps=0.0 q=12.0 size=       1KiB time=00:00:00.01 bitrate= 303.8kbits/s speed=0.0323x elapsed=0:00:00.51    \nframe=    9 fps=8.5 q=15.0 size=       1KiB time=00:00:00.15 bitrate=  33.8kbits/s speed=0.142x elapsed=0:00:01.05    \nframe=   13 fps=8.2 q=6.0 size=       1KiB time=00:00:00.21 bitrate=  23.4kbits/s speed=0.136x elapsed=0:00:01.59    \nframe=   17 fps=8.0 q=8.0 size=       1KiB time=00:00:00.28 bitrate=  17.9kbits/s speed=0.133x elapsed=0:00:02.13    \nframe=   21 fps=7.9 q=6.0 size=       1KiB time=00:00:00.35 bitrate=  14.5kbits/s speed=0.132x elapsed=0:00:02.66    \nframe=   24 fps=7.5 q=6.0 size=       1KiB time=00:00:00.40 bitrate=  12.7kbits/s speed=0.125x elapsed=0:00:03.20    \nframe=   28 fps=7.5 q=6.0 size=       1KiB time=00:00:00.46 bitrate=  10.9kbits/s speed=0.125x elapsed=0:00:03.73    \nframe=   32 fps=7.5 q=7.0 size=       1KiB time=00:00:00.53 bitrate=   9.5kbits/s speed=0.125x elapsed=0:00:04.26    \nframe=   35 fps=7.3 q=7.0 size=       1KiB time=00:00:00.58 bitrate=   8.7kbits/s speed=0.122x elapsed=0:00:04.79    \nframe=   39 fps=7.3 q=6.0 size=       1KiB time=00:00:00.65 bitrate=   7.8kbits/s speed=0.122x elapsed=0:00:05.31    \nframe=   43 fps=7.3 q=6.0 size=       1KiB time=00:00:00.71 bitrate=   7.1kbits/s speed=0.122x elapsed=0:00:05.87    \nframe=   47 fps=7.3 q=6.0 size=       1KiB time=00:00:00.78 bitrate=   6.5kbits/s speed=0.122x elapsed=0:00:06.41    \nframe=   50 fps=7.2 q=6.0 size=       1KiB time=00:00:00.83 bitrate=   6.1kbits/s speed=0.12x elapsed=0:00:06.94    \nframe=   54 fps=7.2 q=6.0 size=       1KiB time=00:00:00.90 bitrate=   5.6kbits/s speed=0.12x elapsed=0:00:07.52    \nframe=   58 fps=7.2 q=7.0 size=       1KiB time=00:00:00.96 bitrate=   5.2kbits/s speed=0.119x elapsed=0:00:08.09    \nframe=   61 fps=7.1 q=2.0 size=       1KiB time=00:00:01.01 bitrate=   5.0kbits/s speed=0.118x elapsed=0:00:08.64    \nframe=   65 fps=7.1 q=6.0 size=       1KiB time=00:00:01.08 bitrate=   4.7kbits/s speed=0.118x elapsed=0:00:09.14    \nframe=   69 fps=7.1 q=6.0 size=       1KiB time=00:00:01.15 bitrate=   4.4kbits/s speed=0.119x elapsed=0:00:09.67    \nframe=   72 fps=7.0 q=6.0 size=       1KiB time=00:00:01.20 bitrate=   4.2kbits/s speed=0.117x elapsed=0:00:10.22    \nframe=   76 fps=7.1 q=7.0 size=       1KiB time=00:00:01.26 bitrate=   4.0kbits/s speed=0.118x elapsed=0:00:10.72    \nframe=   80 fps=7.1 q=7.0 size=       1KiB time=00:00:01.33 bitrate=   3.8kbits/s speed=0.118x elapsed=0:00:11.26    \nframe=   84 fps=7.1 q=7.0 size=       1KiB time=00:00:01.40 bitrate=   3.6kbits/s speed=0.119x elapsed=0:00:11.79    \nframe=   88 fps=7.1 q=6.0 size=       1KiB time=00:00:01.46 bitrate=   3.5kbits/s speed=0.119x elapsed=0:00:12.37    \nframe=   92 fps=7.1 q=6.0 size=       1KiB time=00:00:01.53 bitrate=   3.3kbits/s speed=0.119x elapsed=0:00:12.91    \nframe=   96 fps=7.1 q=6.0 size=       1KiB time=00:00:01.60 bitrate=   3.2kbits/s speed=0.119x elapsed=0:00:13.45    \nframe=   99 fps=7.1 q=6.0 size=       1KiB time=00:00:01.65 bitrate=   3.1kbits/s speed=0.118x elapsed=0:00:13.99    \nframe=  103 fps=7.1 q=7.0 size=       1KiB time=00:00:01.71 bitrate=   2.9kbits/s speed=0.118x elapsed=0:00:14.52    \nframe=  107 fps=7.1 q=7.0 size=       1KiB time=00:00:01.78 bitrate=   2.8kbits/s speed=0.118x elapsed=0:00:15.05    \nframe=  111 fps=7.1 q=7.0 size=       1KiB time=00:00:01.85 bitrate=   2.7kbits/s speed=0.118x elapsed=0:00:15.63    \nframe=  115 fps=7.1 q=7.0 size=       1KiB time=00:00:01.91 bitrate=   2.6kbits/s speed=0.119x elapsed=0:00:16.17    \nframe=  118 fps=7.1 q=6.0 size=       1KiB time=00:00:01.96 bitrate=   2.6kbits/s speed=0.118x elapsed=0:00:16.70    \nframe=  123 fps=7.1 q=7.0 size=       1KiB time=00:00:02.05 bitrate=   2.5kbits/s speed=0.119x elapsed=0:00:17.24    \nframe=  127 fps=7.1 q=7.0 size=       1KiB time=00:00:02.11 bitrate=   2.4kbits/s speed=0.119x elapsed=0:00:17.80    \nframe=  131 fps=7.1 q=7.0 size=    1792KiB time=00:00:02.18 bitrate=6723.7kbits/s speed=0.119x elapsed=0:00:18.33    \nframe=  135 fps=7.2 q=7.0 size=    1792KiB time=00:00:02.25 bitrate=6524.5kbits/s speed=0.119x elapsed=0:00:18.86    \nframe=  139 fps=7.2 q=7.0 size=    1792KiB time=00:00:02.31 bitrate=6336.7kbits/s speed=0.119x elapsed=0:00:19.41    \nframe=  143 fps=7.2 q=6.0 size=    1792KiB time=00:00:02.38 bitrate=6159.5kbits/s speed=0.119x elapsed=0:00:19.95    \nframe=  146 fps=7.1 q=6.0 size=    1792KiB time=00:00:02.43 bitrate=6032.9kbits/s speed=0.118x elapsed=0:00:20.54    \nframe=  149 fps=7.1 q=7.0 size=    1792KiB time=00:00:02.48 bitrate=5911.4kbits/s speed=0.118x elapsed=0:00:21.09    \nframe=  152 fps=7.0 q=2.0 size=    1792KiB time=00:00:02.53 bitrate=5794.8kbits/s speed=0.117x elapsed=0:00:21.64    \nframe=  155 fps=7.0 q=6.0 size=    1792KiB time=00:00:02.58 bitrate=5682.6kbits/s speed=0.116x elapsed=0:00:22.18    \nframe=  157 fps=6.9 q=6.0 size=    1792KiB time=00:00:02.61 bitrate=5610.2kbits/s speed=0.115x elapsed=0:00:22.81    \nframe=  159 fps=6.8 q=6.0 size=    1792KiB time=00:00:02.65 bitrate=5539.6kbits/s speed=0.113x elapsed=0:00:23.37    \nframe=  162 fps=6.8 q=7.0 size=    1792KiB time=00:00:02.70 bitrate=5437.1kbits/s speed=0.113x elapsed=0:00:23.96    \nframe=  164 fps=6.7 q=2.0 size=    1792KiB time=00:00:02.73 bitrate=5370.8kbits/s speed=0.111x elapsed=0:00:24.57    \nframe=  168 fps=6.7 q=6.0 size=    1792KiB time=00:00:02.80 bitrate=5242.9kbits/s speed=0.111x elapsed=0:00:25.16    \nframe=  171 fps=6.6 q=6.0 size=    1792KiB time=00:00:02.85 bitrate=5150.9kbits/s speed=0.111x elapsed=0:00:25.74    \nframe=  174 fps=6.6 q=6.0 size=    1792KiB time=00:00:02.90 bitrate=5062.1kbits/s speed=0.11x elapsed=0:00:26.27    \nframe=  176 fps=6.6 q=2.0 size=    1792KiB time=00:00:02.93 bitrate=5004.6kbits/s speed=0.109x elapsed=0:00:26.79    \nframe=  179 fps=6.5 q=6.0 size=    1792KiB time=00:00:02.98 bitrate=4920.7kbits/s speed=0.109x elapsed=0:00:27.34    \nframe=  182 fps=6.5 q=6.0 size=    1792KiB time=00:00:03.03 bitrate=4839.6kbits/s speed=0.109x elapsed=0:00:27.92    \nframe=  185 fps=6.5 q=6.0 size=    1792KiB time=00:00:03.08 bitrate=4761.1kbits/s speed=0.108x elapsed=0:00:28.49    \nframe=  187 fps=6.4 q=6.0 size=    1792KiB time=00:00:03.11 bitrate=4710.2kbits/s speed=0.107x elapsed=0:00:29.01    \nframe=  190 fps=6.4 q=6.0 size=    1792KiB time=00:00:03.16 bitrate=4635.8kbits/s speed=0.107x elapsed=0:00:29.54    \nframe=  193 fps=6.4 q=6.0 size=    1792KiB time=00:00:03.21 bitrate=4563.7kbits/s speed=0.107x elapsed=0:00:30.06    \nframe=  196 fps=6.4 q=6.0 size=    1792KiB time=00:00:03.26 bitrate=4493.9kbits/s speed=0.107x elapsed=0:00:30.58    \nframe=  199 fps=6.4 q=6.0 size=    1792KiB time=00:00:03.31 bitrate=4426.1kbits/s speed=0.107x elapsed=0:00:31.11    \nframe=  202 fps=6.4 q=6.0 size=    1792KiB time=00:00:03.36 bitrate=4360.4kbits/s speed=0.106x elapsed=0:00:31.71    \nframe=  204 fps=6.3 q=6.0 size=    1792KiB time=00:00:03.40 bitrate=4317.7kbits/s speed=0.105x elapsed=0:00:32.37    \nframe=  207 fps=6.3 q=6.0 size=    1792KiB time=00:00:03.45 bitrate=4255.1kbits/s speed=0.105x elapsed=0:00:32.92    \nframe=  209 fps=6.2 q=6.0 size=    1792KiB time=00:00:03.48 bitrate=4214.4kbits/s speed=0.104x elapsed=0:00:33.47    \nframe=  211 fps=6.2 q=6.0 size=    1792KiB time=00:00:03.51 bitrate=4174.4kbits/s speed=0.103x elapsed=0:00:34.02    \nframe=  214 fps=6.2 q=6.0 size=    1792KiB time=00:00:03.56 bitrate=4115.9kbits/s speed=0.103x elapsed=0:00:34.58    \nframe=  217 fps=6.2 q=6.0 size=    1792KiB time=00:00:03.61 bitrate=4059.0kbits/s speed=0.103x elapsed=0:00:35.13    \nframe=  220 fps=6.2 q=6.0 size=    1792KiB time=00:00:03.66 bitrate=4003.7kbits/s speed=0.103x elapsed=0:00:35.67    \nframe=  223 fps=6.2 q=6.0 size=    1792KiB time=00:00:03.71 bitrate=3949.8kbits/s speed=0.103x elapsed=0:00:36.19    \nframe=  226 fps=6.1 q=6.0 size=    1792KiB time=00:00:03.76 bitrate=3897.4kbits/s speed=0.102x elapsed=0:00:36.81    \nframe=  229 fps=6.1 q=6.0 size=    1792KiB time=00:00:03.81 bitrate=3846.3kbits/s speed=0.102x elapsed=0:00:37.36    \nframe=  232 fps=6.1 q=6.0 size=    1792KiB time=00:00:03.86 bitrate=3796.6kbits/s speed=0.102x elapsed=0:00:37.91    \nframe=  235 fps=6.1 q=6.0 size=    1792KiB time=00:00:03.91 bitrate=3748.1kbits/s speed=0.102x elapsed=0:00:38.44    \nframe=  237 fps=6.1 q=7.0 size=    1792KiB time=00:00:03.95 bitrate=3716.5kbits/s speed=0.101x elapsed=0:00:39.08    \nframe=  240 fps=6.1 q=6.0 size=    1792KiB time=00:00:04.00 bitrate=3670.0kbits/s speed=0.101x elapsed=0:00:39.65    \nframe=  243 fps=6.0 q=6.0 size=    1792KiB time=00:00:04.03 bitrate=3639.7kbits/s speed= 0.1x elapsed=0:00:40.19    \nframe=  245 fps=6.0 q=6.0 size=    1792KiB time=00:00:04.08 bitrate=3595.1kbits/s speed= 0.1x elapsed=0:00:40.80    \nframe=  248 fps=6.0 q=6.0 size=    1792KiB time=00:00:04.13 bitrate=3551.6kbits/s speed=0.0999x elapsed=0:00:41.38    \nframe=  251 fps=6.0 q=6.0 size=    1792KiB time=00:00:04.16 bitrate=3523.2kbits/s speed=0.0992x elapsed=0:00:41.98    \nframe=  253 fps=6.0 q=6.0 size=    1792KiB time=00:00:04.21 bitrate=3481.4kbits/s speed=0.0992x elapsed=0:00:42.51    \nframe=  256 fps=5.9 q=6.0 size=    1792KiB time=00:00:04.26 bitrate=3440.6kbits/s speed=0.0991x elapsed=0:00:43.05    \nframe=  259 fps=5.9 q=6.0 size=    3840KiB time=00:00:04.31 bitrate=7287.4kbits/s speed=0.099x elapsed=0:00:43.59    \nframe=  262 fps=5.9 q=5.0 size=    3840KiB time=00:00:04.36 bitrate=7204.0kbits/s speed=0.099x elapsed=0:00:44.11    \nframe=  265 fps=5.9 q=6.0 size=    3840KiB time=00:00:04.41 bitrate=7122.4kbits/s speed=0.0989x elapsed=0:00:44.63    \nframe=  268 fps=5.9 q=6.0 size=    3840KiB time=00:00:04.46 bitrate=7042.7kbits/s speed=0.0988x elapsed=0:00:45.23    \nframe=  271 fps=5.9 q=6.0 size=    3840KiB time=00:00:04.51 bitrate=6964.7kbits/s speed=0.0984x elapsed=0:00:45.88    \nframe=  274 fps=5.9 q=5.0 size=    3840KiB time=00:00:04.56 bitrate=6888.5kbits/s speed=0.0983x elapsed=0:00:46.45    \nframe=  276 fps=5.9 q=5.0 size=    3840KiB time=00:00:04.60 bitrate=6838.5kbits/s speed=0.0978x elapsed=0:00:47.04    \nframe=  276 fps=5.8 q=5.0 size=    3840KiB time=00:00:04.60 bitrate=6838.5kbits/s speed=0.0967x elapsed=0:00:47.55    \nframe=  276 fps=5.7 q=5.0 size=    3840KiB time=00:00:04.60 bitrate=6838.5kbits/s speed=0.0956x elapsed=0:00:48.10    \nframe=  276 fps=5.7 q=5.0 size=    3840KiB time=00:00:04.60 bitrate=6838.5kbits/s speed=0.0945x elapsed=0:00:48.69    \nframe=  276 fps=5.6 q=5.0 size=    3840KiB time=00:00:04.60 bitrate=6838.5kbits/s speed=0.0935x elapsed=0:00:49.21    \nframe=  276 fps=5.5 q=5.0 size=    3840KiB time=00:00:04.60 bitrate=6838.5kbits/s speed=0.0925x elapsed=0:00:49.74    \nframe=  276 fps=5.5 q=5.0 size=    3840KiB time=00:00:04.60 bitrate=6838.5kbits/s speed=0.0915x elapsed=0:00:50.28    \nframe=  276 fps=5.4 q=5.0 size=    3840KiB time=00:00:04.60 bitrate=6838.5kbits/s speed=0.0905x elapsed=0:00:50.82    \nframe=  276 fps=5.4 q=5.0 size=    3840KiB time=00:00:04.60 bitrate=6838.5kbits/s speed=0.0896x elapsed=0:00:51.34    \nframe=  276 fps=5.3 q=5.0 size=    3840KiB time=00:00:04.60 bitrate=6838.5kbits/s speed=0.0886x elapsed=0:00:51.88    \n[out#0/webm @ 00000250b1259540] video:4728KiB audio:0KiB subtitle:0KiB other streams:0KiB global headers:0KiB muxing overhead: 0.059236%\nframe=  300 fps=5.8 q=6.0 Lsize=    4731KiB time=00:00:05.00 bitrate=7751.2kbits/s speed=0.0962x elapsed=0:00:51.99    \n",
  "seconds": 52.437007188797,
  "probe_out": {}
}